<?xml version="1.0" encoding="UTF-8" standalone="no"?>
<!DOCTYPE svg PUBLIC "-//W3C//DTD SVG 1.1//EN"
 "http://www.w3.org/Graphics/SVG/1.1/DTD/svg11.dtd">
<!-- Generated by graphviz version 7.0.1 (20221109.1506)
 -->
<!-- Pages: 1 -->
<svg width="492pt" height="594pt"
 viewBox="0.00 0.00 492.00 594.00" xmlns="http://www.w3.org/2000/svg" xmlns:xlink="http://www.w3.org/1999/xlink">
<g id="graph0" class="graph" transform="scale(1 1) rotate(0) translate(4 590)">
<polygon fill="white" stroke="none" points="-4,4 -4,-590 488,-590 488,4 -4,4"/>
<!-- 6107701040 -->
<g id="node1" class="node">
<title>6107701040</title>
<polygon fill="#caff70" stroke="black" points="414,-31 343,-31 343,0 414,0 414,-31"/>
<text text-anchor="middle" x="378.5" y="-7" font-family="monospace" font-size="10.00"> (32, 27)</text>
</g>
<!-- 6108434048 -->
<g id="node2" class="node">
<title>6108434048</title>
<polygon fill="lightgrey" stroke="black" points="423,-86 334,-86 334,-67 423,-67 423,-86"/>
<text text-anchor="middle" x="378.5" y="-74" font-family="monospace" font-size="10.00">AddBackward0</text>
</g>
<!-- 6108434048&#45;&gt;6107701040 -->
<g id="edge17" class="edge">
<title>6108434048&#45;&gt;6107701040</title>
<path fill="none" stroke="black" d="M378.5,-66.54C378.5,-60.07 378.5,-50.98 378.5,-42.32"/>
<polygon fill="black" stroke="black" points="382,-42.58 378.5,-32.58 375,-42.58 382,-42.58"/>
</g>
<!-- 6108445040 -->
<g id="node3" class="node">
<title>6108445040</title>
<polygon fill="lightgrey" stroke="black" points="365,-141 282,-141 282,-122 365,-122 365,-141"/>
<text text-anchor="middle" x="323.5" y="-129" font-family="monospace" font-size="10.00">MmBackward0</text>
</g>
<!-- 6108445040&#45;&gt;6108434048 -->
<g id="edge1" class="edge">
<title>6108445040&#45;&gt;6108434048</title>
<path fill="none" stroke="black" d="M332.58,-121.75C340.34,-114.27 351.71,-103.32 361.2,-94.17"/>
<polygon fill="black" stroke="black" points="363.36,-96.95 368.13,-87.49 358.5,-91.91 363.36,-96.95"/>
</g>
<!-- 5920913728 -->
<g id="node4" class="node">
<title>5920913728</title>
<polygon fill="lightgrey" stroke="black" points="262,-202 167,-202 167,-183 262,-183 262,-202"/>
<text text-anchor="middle" x="214.5" y="-190" font-family="monospace" font-size="10.00">TanhBackward0</text>
</g>
<!-- 5920913728&#45;&gt;6108445040 -->
<g id="edge2" class="edge">
<title>5920913728&#45;&gt;6108445040</title>
<path fill="none" stroke="black" d="M231.05,-182.54C248.6,-173.04 276.57,-157.9 297.15,-146.76"/>
<polygon fill="black" stroke="black" points="298.69,-149.91 305.82,-142.07 295.36,-143.75 298.69,-149.91"/>
</g>
<!-- 6015062928 -->
<g id="node5" class="node">
<title>6015062928</title>
<polygon fill="lightgrey" stroke="black" points="259,-269 170,-269 170,-250 259,-250 259,-269"/>
<text text-anchor="middle" x="214.5" y="-257" font-family="monospace" font-size="10.00">AddBackward0</text>
</g>
<!-- 6015062928&#45;&gt;5920913728 -->
<g id="edge3" class="edge">
<title>6015062928&#45;&gt;5920913728</title>
<path fill="none" stroke="black" d="M214.5,-249.73C214.5,-240.48 214.5,-225.57 214.5,-213.42"/>
<polygon fill="black" stroke="black" points="218,-213.64 214.5,-203.64 211,-213.64 218,-213.64"/>
</g>
<!-- 6015063120 -->
<g id="node6" class="node">
<title>6015063120</title>
<polygon fill="lightgrey" stroke="black" points="201,-330 118,-330 118,-311 201,-311 201,-330"/>
<text text-anchor="middle" x="159.5" y="-318" font-family="monospace" font-size="10.00">MmBackward0</text>
</g>
<!-- 6015063120&#45;&gt;6015062928 -->
<g id="edge4" class="edge">
<title>6015063120&#45;&gt;6015062928</title>
<path fill="none" stroke="black" d="M167.85,-310.54C176.02,-301.77 188.67,-288.21 198.73,-277.41"/>
<polygon fill="black" stroke="black" points="201.14,-279.97 205.39,-270.27 196.02,-275.2 201.14,-279.97"/>
</g>
<!-- 6015063072 -->
<g id="node7" class="node">
<title>6015063072</title>
<polygon fill="lightgrey" stroke="black" points="98,-391 3,-391 3,-372 98,-372 98,-391"/>
<text text-anchor="middle" x="50.5" y="-379" font-family="monospace" font-size="10.00">ViewBackward0</text>
</g>
<!-- 6015063072&#45;&gt;6015063120 -->
<g id="edge5" class="edge">
<title>6015063072&#45;&gt;6015063120</title>
<path fill="none" stroke="black" d="M67.05,-371.54C84.6,-362.04 112.57,-346.9 133.15,-335.76"/>
<polygon fill="black" stroke="black" points="134.69,-338.91 141.82,-331.07 131.36,-332.75 134.69,-338.91"/>
</g>
<!-- 6015065040 -->
<g id="node8" class="node">
<title>6015065040</title>
<polygon fill="lightgrey" stroke="black" points="101,-458 0,-458 0,-439 101,-439 101,-458"/>
<text text-anchor="middle" x="50.5" y="-446" font-family="monospace" font-size="10.00">IndexBackward0</text>
</g>
<!-- 6015065040&#45;&gt;6015063072 -->
<g id="edge6" class="edge">
<title>6015065040&#45;&gt;6015063072</title>
<path fill="none" stroke="black" d="M50.5,-438.73C50.5,-429.48 50.5,-414.57 50.5,-402.42"/>
<polygon fill="black" stroke="black" points="54,-402.64 50.5,-392.64 47,-402.64 54,-402.64"/>
</g>
<!-- 6015062592 -->
<g id="node9" class="node">
<title>6015062592</title>
<polygon fill="lightgrey" stroke="black" points="101,-519 0,-519 0,-500 101,-500 101,-519"/>
<text text-anchor="middle" x="50.5" y="-507" font-family="monospace" font-size="10.00">AccumulateGrad</text>
</g>
<!-- 6015062592&#45;&gt;6015065040 -->
<g id="edge7" class="edge">
<title>6015062592&#45;&gt;6015065040</title>
<path fill="none" stroke="black" d="M50.5,-499.54C50.5,-491.56 50.5,-479.61 50.5,-469.39"/>
<polygon fill="black" stroke="black" points="54,-469.67 50.5,-459.67 47,-469.67 54,-469.67"/>
</g>
<!-- 5923231744 -->
<g id="node10" class="node">
<title>5923231744</title>
<polygon fill="lightblue" stroke="black" points="86,-586 15,-586 15,-555 86,-555 86,-586"/>
<text text-anchor="middle" x="50.5" y="-562" font-family="monospace" font-size="10.00"> (27, 64)</text>
</g>
<!-- 5923231744&#45;&gt;6015062592 -->
<g id="edge8" class="edge">
<title>5923231744&#45;&gt;6015062592</title>
<path fill="none" stroke="black" d="M50.5,-554.61C50.5,-547.35 50.5,-538.51 50.5,-530.66"/>
<polygon fill="black" stroke="black" points="54,-530.67 50.5,-520.67 47,-530.67 54,-530.67"/>
</g>
<!-- 6015063312 -->
<g id="node11" class="node">
<title>6015063312</title>
<polygon fill="lightgrey" stroke="black" points="217,-391 116,-391 116,-372 217,-372 217,-391"/>
<text text-anchor="middle" x="166.5" y="-379" font-family="monospace" font-size="10.00">AccumulateGrad</text>
</g>
<!-- 6015063312&#45;&gt;6015063120 -->
<g id="edge9" class="edge">
<title>6015063312&#45;&gt;6015063120</title>
<path fill="none" stroke="black" d="M165.44,-371.54C164.49,-363.56 163.07,-351.61 161.86,-341.39"/>
<polygon fill="black" stroke="black" points="165.36,-341.18 160.71,-331.66 158.41,-342.01 165.36,-341.18"/>
</g>
<!-- 4307743776 -->
<g id="node12" class="node">
<title>4307743776</title>
<polygon fill="lightblue" stroke="black" points="205,-464 128,-464 128,-433 205,-433 205,-464"/>
<text text-anchor="middle" x="166.5" y="-440" font-family="monospace" font-size="10.00"> (192, 64)</text>
</g>
<!-- 4307743776&#45;&gt;6015063312 -->
<g id="edge10" class="edge">
<title>4307743776&#45;&gt;6015063312</title>
<path fill="none" stroke="black" d="M166.5,-432.75C166.5,-423.9 166.5,-412.5 166.5,-402.81"/>
<polygon fill="black" stroke="black" points="170,-402.9 166.5,-392.9 163,-402.9 170,-402.9"/>
</g>
<!-- 6015062496 -->
<g id="node13" class="node">
<title>6015062496</title>
<polygon fill="lightgrey" stroke="black" points="320,-330 219,-330 219,-311 320,-311 320,-330"/>
<text text-anchor="middle" x="269.5" y="-318" font-family="monospace" font-size="10.00">AccumulateGrad</text>
</g>
<!-- 6015062496&#45;&gt;6015062928 -->
<g id="edge11" class="edge">
<title>6015062496&#45;&gt;6015062928</title>
<path fill="none" stroke="black" d="M261.15,-310.54C252.98,-301.77 240.33,-288.21 230.27,-277.41"/>
<polygon fill="black" stroke="black" points="232.98,-275.2 223.61,-270.27 227.86,-279.97 232.98,-275.2"/>
</g>
<!-- 6066594224 -->
<g id="node14" class="node">
<title>6066594224</title>
<polygon fill="lightblue" stroke="black" points="296.5,-397 242.5,-397 242.5,-366 296.5,-366 296.5,-397"/>
<text text-anchor="middle" x="269.5" y="-373" font-family="monospace" font-size="10.00"> (64)</text>
</g>
<!-- 6066594224&#45;&gt;6015062496 -->
<g id="edge12" class="edge">
<title>6066594224&#45;&gt;6015062496</title>
<path fill="none" stroke="black" d="M269.5,-365.61C269.5,-358.35 269.5,-349.51 269.5,-341.66"/>
<polygon fill="black" stroke="black" points="273,-341.67 269.5,-331.67 266,-341.67 273,-341.67"/>
</g>
<!-- 6015063264 -->
<g id="node15" class="node">
<title>6015063264</title>
<polygon fill="lightgrey" stroke="black" points="381,-202 280,-202 280,-183 381,-183 381,-202"/>
<text text-anchor="middle" x="330.5" y="-190" font-family="monospace" font-size="10.00">AccumulateGrad</text>
</g>
<!-- 6015063264&#45;&gt;6108445040 -->
<g id="edge13" class="edge">
<title>6015063264&#45;&gt;6108445040</title>
<path fill="none" stroke="black" d="M329.44,-182.54C328.49,-174.56 327.07,-162.61 325.86,-152.39"/>
<polygon fill="black" stroke="black" points="329.36,-152.18 324.71,-142.66 322.41,-153.01 329.36,-152.18"/>
</g>
<!-- 6108003232 -->
<g id="node16" class="node">
<title>6108003232</title>
<polygon fill="lightblue" stroke="black" points="366,-275 295,-275 295,-244 366,-244 366,-275"/>
<text text-anchor="middle" x="330.5" y="-251" font-family="monospace" font-size="10.00"> (64, 27)</text>
</g>
<!-- 6108003232&#45;&gt;6015063264 -->
<g id="edge14" class="edge">
<title>6108003232&#45;&gt;6015063264</title>
<path fill="none" stroke="black" d="M330.5,-243.75C330.5,-234.9 330.5,-223.5 330.5,-213.81"/>
<polygon fill="black" stroke="black" points="334,-213.9 330.5,-203.9 327,-213.9 334,-213.9"/>
</g>
<!-- 6108442400 -->
<g id="node17" class="node">
<title>6108442400</title>
<polygon fill="lightgrey" stroke="black" points="484,-141 383,-141 383,-122 484,-122 484,-141"/>
<text text-anchor="middle" x="433.5" y="-129" font-family="monospace" font-size="10.00">AccumulateGrad</text>
</g>
<!-- 6108442400&#45;&gt;6108434048 -->
<g id="edge15" class="edge">
<title>6108442400&#45;&gt;6108434048</title>
<path fill="none" stroke="black" d="M424.42,-121.75C416.66,-114.27 405.29,-103.32 395.8,-94.17"/>
<polygon fill="black" stroke="black" points="398.5,-91.91 388.87,-87.49 393.64,-96.95 398.5,-91.91"/>
</g>
<!-- 6108002432 -->
<g id="node18" class="node">
<title>6108002432</title>
<polygon fill="lightblue" stroke="black" points="460.5,-208 406.5,-208 406.5,-177 460.5,-177 460.5,-208"/>
<text text-anchor="middle" x="433.5" y="-184" font-family="monospace" font-size="10.00"> (27)</text>
</g>
<!-- 6108002432&#45;&gt;6108442400 -->
<g id="edge16" class="edge">
<title>6108002432&#45;&gt;6108442400</title>
<path fill="none" stroke="black" d="M433.5,-176.61C433.5,-169.35 433.5,-160.51 433.5,-152.66"/>
<polygon fill="black" stroke="black" points="437,-152.67 433.5,-142.67 430,-152.67 437,-152.67"/>
</g>
</g>
</svg>
